<svg xmlns="http://www.w3.org/2000/svg" width="29" height="29" viewBox="0 0 29 29">
  <path fill="#000000" d="M27.0549224,7.22166432 C25.7582922,5.00004104 23.9994961,3.2411788 21.7780712,1.94468083 C19.5563156,0.648116731 17.1308209,0 14.4998677,0 C11.8692452,0 9.44295695,0.648315114 7.22166432,1.94468083 C5.00004104,3.24111268 3.24131106,5.00004104 1.94468083,7.22166432 C0.648248986,9.44322146 0,11.8691791 0,14.499471 C0,17.6590483 0.92181892,20.5002212 2.76591965,23.023717 C4.609822,25.5474112 6.99187086,27.2937092 9.91186785,28.2628094 C10.2517638,28.3258951 10.5033793,28.2815235 10.6669791,28.1308187 C10.8306449,27.9799154 10.9123786,27.7909227 10.9123786,27.564634 C10.9123786,27.5268752 10.9091384,27.1871776 10.9028563,26.5451446 C10.8963758,25.9031116 10.8933339,25.3430108 10.8933339,24.8651065 L10.4590738,24.9402275 C10.1821975,24.9909474 9.83291148,25.0124388 9.4112157,25.0063551 C8.9897183,25.0004697 8.55215188,24.9562965 8.09911161,24.874166 C7.64587295,24.7927629 7.22430942,24.6039686 6.83409038,24.3081798 C6.44406972,24.0123909 6.16719341,23.6252138 6.00352757,23.1472434 L5.81473323,22.712785 C5.68889239,22.4235428 5.49077406,22.1022287 5.22011374,21.7500331 C4.94945342,21.3975068 4.67575123,21.1585216 4.39887492,21.0326807 L4.26668582,20.9380521 C4.17860384,20.8751647 4.09687011,20.7993164 4.02128625,20.7113005 C3.94576852,20.6232847 3.88922941,20.5352027 3.85147054,20.4469885 C3.81364555,20.3587081 3.84499004,20.2862984 3.94583464,20.2294947 C4.04667925,20.1726911 4.22892695,20.1451159 4.49337128,20.1451159 L4.87082769,20.2015228 C5.12257551,20.2519781 5.43397044,20.402683 5.80540924,20.654563 C6.17664966,20.9062447 6.48182859,21.2334442 6.72101216,21.6360291 C7.01065111,22.1522212 7.35960652,22.5455482 7.76887031,22.8162086 C8.17780347,23.0868689 8.59010913,23.2219676 9.00539054,23.2219676 C9.42067195,23.2219676 9.77934812,23.1904908 10.0815513,23.127868 C10.3834239,23.0649145 10.6666484,22.9702859 10.9310927,22.8445112 C11.0443693,22.0008551 11.3527885,21.3527384 11.8560858,20.8996981 C11.1387335,20.8243126 10.4937908,20.7107715 9.92092734,20.5598022 C9.34839447,20.4086344 8.75675072,20.163301 8.14639285,19.8231406 C7.53570435,19.483443 7.02910071,19.061615 6.62644968,18.5583838 C6.22373252,18.0548882 5.89322671,17.3938766 5.63539515,16.5759441 C5.37743133,15.7576811 5.24841636,14.8137755 5.24841636,13.743963 C5.24841636,12.2207134 5.745696,10.92448 6.74005692,9.85453521 C6.27425401,8.70933722 6.31822887,7.42553575 6.87211376,6.00326306 C7.23713818,5.8898542 7.77845882,5.97496044 8.49581116,6.25805275 C9.21329575,6.54127731 9.73861351,6.78389952 10.0722934,6.98505972 C10.4059734,7.18615379 10.6733273,7.35656465 10.874752,7.49477136 C12.0455414,7.16763806 13.253759,7.00403834 14.4997355,7.00403834 C15.745712,7.00403834 16.9541941,7.16763806 18.1250496,7.49477136 L18.8424681,7.04186334 C19.3330688,6.73966015 19.9124128,6.46271771 20.5791114,6.21096989 C21.2462068,5.95935432 21.7563152,5.89005258 22.1089076,6.00346144 C22.6750922,7.42580026 22.7255476,8.7095356 22.2596124,9.8547336 C23.2539072,10.9246784 23.7513853,12.2212425 23.7513853,13.7441614 C23.7513853,14.8139739 23.6219074,15.7608552 23.3643403,16.5854004 C23.1064427,17.4100778 22.7730934,18.0704282 22.3641602,18.5678401 C21.9547642,19.0651859 21.4449203,19.4837075 20.8345624,19.8233389 C20.2240723,20.1632349 19.6322301,20.4085683 19.0596973,20.559736 C18.4868999,20.7109038 17.8419573,20.824511 17.1246049,20.9000287 C17.7788715,21.4662134 18.106071,22.359928 18.106071,23.580776 L18.106071,27.564105 C18.106071,27.7903937 18.1847628,27.9793203 18.3422788,28.1302896 C18.4995964,28.2809945 18.7480378,28.3253661 19.0879338,28.2622142 C22.0083275,27.2932463 24.3903764,25.5468822 26.2342126,23.023188 C28.0778504,20.4996922 29,17.6585193 29,14.498942 C28.9993387,11.8689807 28.3507591,9.44322146 27.0549224,7.22166432 Z"/>
</svg>
