<svg xmlns="http://www.w3.org/2000/svg" width="21" height="21" viewBox="0 0 21 21">
  <path fill="#000000" d="M20.9633925,12.8748341 L20.9633925,20.9787249 L16.4684718,20.9787249 L16.4684718,13.4138188 C16.4684718,11.5118515 15.8203653,10.2192052 14.1939395,10.2192052 C12.9501169,10.2192052 12.2163883,11.0943734 11.8888497,11.9366201 C11.7709165,12.2399279 11.7350981,12.6646965 11.7350981,13.0840087 L11.7350981,20.977762 L7.24460543,20.977762 C7.24460543,20.977762 7.30488727,8.17014629 7.24460543,6.84370742 L11.7360188,6.84370742 L11.7360188,8.8470524 C11.7299248,8.8635131 11.7168163,8.87717686 11.7106785,8.89547162 L11.7360188,8.89547162 L11.7360188,8.8470524 C12.3360752,7.88421616 13.399096,6.51206332 15.7863006,6.51206332 C18.749142,6.51210917 20.9633925,8.53191485 20.9633925,12.8748341 Z M2.54266597,0.0288406114 C1.00624635,0.0288406114 0,1.08305895 0,2.4734607 C0,3.82640175 0.976565762,4.91624672 2.48501461,4.91624672 L2.51210856,4.91624672 C4.0825929,4.91624672 5.05565136,3.82640175 5.05565136,2.4734607 C5.02509395,1.08305895 4.08263674,0.0288406114 2.54266597,0.0288406114 Z M0.268177453,20.978679 L4.76046764,20.978679 L4.76046764,6.84283624 L0.268177453,6.84283624 L0.268177453,20.978679 Z"/>
</svg>
