<svg xmlns="http://www.w3.org/2000/svg" width="140" height="16" viewBox="0 0 140 16">
  <path fill="#0E0E0E" fill-rule="evenodd" d="M10.03,18.04 L10.03,20 L1.71,20 L1.71,5.6 L4.05,5.6 L4.05,18.04 L10.03,18.04 Z M16.69,20 L14.34,20 L14.34,5.6 L16.69,5.6 L16.69,20 Z M29.9399999,8.06 C29.8666662,8.1800006 29.7900003,8.26833305 29.7099999,8.325 C29.6299995,8.38166695 29.5300005,8.41 29.4099999,8.41 C29.2833326,8.41 29.1416674,8.3566672 28.9849999,8.25 C28.8283325,8.1433328 28.6350011,8.02500065 28.4049999,7.895 C28.1749988,7.76499935 27.9033348,7.64500055 27.5899999,7.535 C27.276665,7.42499945 26.9033354,7.37 26.4699999,7.37 C26.0699979,7.37 25.7183348,7.4199995 25.4149999,7.52 C25.1116651,7.6200005 24.8566676,7.7599991 24.6499999,7.94 C24.4433322,8.1200009 24.2883338,8.33166545 24.1849999,8.575 C24.0816661,8.81833455 24.0299999,9.0833319 24.0299999,9.37 C24.0299999,9.7366685 24.1266656,10.0416654 24.3199999,10.285 C24.5133342,10.5283346 24.7683317,10.7366658 25.0849999,10.91 C25.4016682,11.0833342 25.7633312,11.2349994 26.1699999,11.365 C26.5766686,11.4950007 26.9916645,11.6333326 27.4149999,11.78 C27.8383354,11.9266674 28.2533312,12.0933324 28.6599999,12.28 C29.0666686,12.4666676 29.4283317,12.7033319 29.7449999,12.99 C30.0616682,13.2766681 30.3166656,13.6266646 30.5099999,14.04 C30.7033342,14.4533354 30.7999999,14.9566637 30.7999999,15.55 C30.7999999,16.1900032 30.690001,16.7899972 30.4699999,17.35 C30.2499988,17.9100028 29.9316687,18.3983312 29.5149999,18.815 C29.0983312,19.2316687 28.585003,19.5599988 27.9749999,19.8 C27.3649969,20.0400012 26.6700038,20.16 25.8899999,20.16 C25.4299976,20.16 24.9816688,20.1150005 24.5449999,20.025 C24.1083311,19.9349996 23.6916686,19.8083342 23.2949999,19.645 C22.8983313,19.4816658 22.5266683,19.2833345 22.1799999,19.05 C21.8333315,18.8166655 21.5233346,18.5566681 21.2499999,18.27 L21.9299999,17.15 C21.9900002,17.0566662 22.0666661,16.9833336 22.1599999,16.93 C22.2533337,16.8766664 22.356666,16.85 22.4699999,16.85 C22.623334,16.85 22.7933323,16.9216659 22.9799999,17.065 C23.1666675,17.208334 23.3916653,17.3649991 23.6549999,17.535 C23.9183346,17.7050008 24.2366647,17.8616659 24.6099999,18.005 C24.9833351,18.148334 25.4299973,18.22 25.9499999,18.22 C26.7966708,18.22 27.4516643,18.0133354 27.9149999,17.6 C28.3783356,17.1866646 28.6099999,16.6166703 28.6099999,15.89 C28.6099999,15.4833313 28.5133342,15.151668 28.3199999,14.895 C28.1266656,14.638332 27.8716682,14.4233342 27.5549999,14.25 C27.2383317,14.0766658 26.8766686,13.9300006 26.4699999,13.81 C26.0633312,13.6899994 25.650002,13.5616673 25.2299999,13.425 C24.8099978,13.2883327 24.3966686,13.1283343 23.9899999,12.945 C23.5833312,12.7616658 23.2216682,12.5216681 22.9049999,12.225 C22.5883317,11.9283318 22.3333342,11.5616689 22.1399999,11.125 C21.9466656,10.6883311 21.8499999,10.1433366 21.8499999,9.49 C21.8499999,8.9699974 21.9516656,8.4666691 22.1549999,7.98 C22.3583343,7.4933309 22.654998,7.06166855 23.0449999,6.685 C23.4350019,6.30833145 23.9166637,6.0066678 24.4899999,5.78 C25.0633361,5.5533322 25.7166629,5.44 26.4499999,5.44 C27.2766707,5.44 28.0349965,5.5699987 28.7249999,5.83 C29.4150034,6.0900013 30.0099974,6.4599976 30.5099999,6.94 L29.9399999,8.06 Z M42.9599999,14.6 L40.9799999,9.34 C40.8199991,8.9333313 40.6566674,8.4166698 40.4899999,7.79 C40.4166662,8.1033349 40.336667,8.39166535 40.2499999,8.655 C40.1633328,8.91833465 40.0833336,9.149999 40.0099999,9.35 L38.0299999,14.6 L42.9599999,14.6 Z M47.3899999,20 L45.5799999,20 C45.3733322,20 45.2066672,19.9483339 45.0799999,19.845 C44.9533326,19.7416662 44.8566669,19.6133341 44.7899999,19.46 L43.5899999,16.28 L37.3899999,16.28 L36.1899999,19.46 C36.1366663,19.593334 36.0433339,19.7166661 35.9099999,19.83 C35.7766659,19.9433339 35.6100009,20 35.4099999,20 L33.5999999,20 L39.3099999,5.6 L41.6799999,5.6 L47.3899999,20 Z M69.7699998,12.91 L69.7699998,18.61 C68.3366593,19.6433385 66.6700093,20.16 64.7699998,20.16 C63.6033273,20.16 62.5483378,19.9783351 61.6049998,19.615 C60.6616617,19.2516649 59.8566698,18.7450032 59.1899998,18.095 C58.5233298,17.4449968 58.0100016,16.6700045 57.6499998,15.77 C57.289998,14.8699955 57.1099998,13.8800054 57.1099998,12.8 C57.1099998,11.7133279 57.2833314,10.7183379 57.6299998,9.815 C57.9766682,8.91166215 58.4733299,8.13500325 59.1199998,7.485 C59.7666697,6.83499675 60.5466619,6.33166845 61.4599998,5.975 C62.3733377,5.61833155 63.3999941,5.44 64.5399998,5.44 C65.1200027,5.44 65.6583306,5.48499955 66.1549998,5.575 C66.6516689,5.66500045 67.113331,5.7899992 67.5399998,5.95 C67.9666686,6.1100008 68.359998,6.3033322 68.7199998,6.53 C69.0800016,6.7566678 69.4099983,7.0099986 69.7099998,7.29 L69.0399998,8.36 C68.9333326,8.5266675 68.7966673,8.6299998 68.6299998,8.67 C68.4633323,8.7100002 68.2833341,8.6700006 68.0899998,8.55 C67.8966655,8.4366661 67.6916675,8.3166673 67.4749998,8.19 C67.258332,8.0633327 67.0100012,7.94500055 66.7299998,7.835 C66.4499984,7.72499945 66.1266683,7.63500035 65.7599998,7.565 C65.3933313,7.49499965 64.9600023,7.46 64.4599998,7.46 C63.699996,7.46 63.0150028,7.58499875 62.4049998,7.835 C61.7949967,8.08500125 61.2733353,8.44166435 60.8399998,8.905 C60.4066643,9.36833565 60.0733343,9.9299967 59.8399998,10.59 C59.6066653,11.2500033 59.4899998,11.9866626 59.4899998,12.8 C59.4899998,13.6600043 59.6133319,14.42833 59.8599998,15.105 C60.1066677,15.7816701 60.4566642,16.3549977 60.9099998,16.825 C61.3633354,17.2950023 61.9116632,17.6533321 62.5549998,17.9 C63.1983363,18.1466679 63.9166625,18.27 64.7099998,18.27 C65.3033361,18.27 65.8316641,18.2066673 66.2949998,18.08 C66.7583354,17.9533327 67.2133309,17.7766678 67.6599998,17.55 L67.6599998,14.69 L65.6499998,14.69 C65.4966657,14.69 65.3766669,14.6483337 65.2899998,14.565 C65.2033327,14.4816662 65.1599998,14.373334 65.1599998,14.24 L65.1599998,12.91 L69.7699998,12.91 Z M79.0199997,12.5 C79.5533357,12.5 80.0199977,12.4350006 80.4199997,12.305 C80.8200017,12.1749994 81.1533317,11.9933345 81.4199997,11.76 C81.6866677,11.5266655 81.8866657,11.248335 82.0199997,10.925 C82.1533337,10.601665 82.2199997,10.2433353 82.2199997,9.85 C82.2199997,9.0633294 81.9600023,8.4633354 81.4399997,8.05 C80.9199971,7.6366646 80.1333383,7.43 79.0799997,7.43 L77.1799997,7.43 L77.1799997,12.5 L79.0199997,12.5 Z M85.7999997,20 L83.7099997,20 C83.2966643,20 82.9966673,19.8400016 82.8099997,19.52 L79.4499997,14.67 C79.3366658,14.5033325 79.2133337,14.3833337 79.0799997,14.31 C78.9466657,14.2366663 78.7466677,14.2 78.4799997,14.2 L77.1799997,14.2 L77.1799997,20 L74.8399997,20 L74.8399997,5.6 L79.0799997,5.6 C80.0266711,5.6 80.841663,5.6966657 81.5249997,5.89 C82.2083365,6.0833343 82.7699975,6.35833155 83.2099997,6.715 C83.6500019,7.07166845 83.9749987,7.4999975 84.1849997,8 C84.3950008,8.5000025 84.4999997,9.0566636 84.4999997,9.67 C84.4999997,10.1700025 84.4250005,10.6366645 84.2749997,11.07 C84.124999,11.5033355 83.9083345,11.8966649 83.6249997,12.25 C83.341665,12.6033351 82.9933351,12.9099987 82.5799997,13.17 C82.1666643,13.4300013 81.696669,13.6333326 81.1699997,13.78 C81.4566678,13.9533342 81.703332,14.1966651 81.9099997,14.51 L85.7999997,20 Z M92.1899997,20 L89.8399997,20 L89.8399997,5.6 L92.1899997,5.6 L92.1899997,20 Z M109.83,5.6 L109.83,20 L108.64,20 C108.459999,20 108.306667,19.9683336 108.18,19.905 C108.053332,19.8416664 107.933334,19.7366674 107.82,19.59 L99.9099996,9.43 C99.9299997,9.6233343 99.9449996,9.81499905 99.9549996,10.005 C99.9649997,10.195001 99.9699996,10.3699992 99.9699996,10.53 L99.9699996,20 L97.9099996,20 L97.9099996,5.6 L99.1299996,5.6 C99.2300001,5.6 99.3149993,5.60499995 99.3849996,5.615 C99.455,5.62500005 99.5199993,5.6433332 99.5799996,5.67 C99.6399999,5.6966668 99.696666,5.7366664 99.7499996,5.79 C99.8033332,5.8433336 99.8599993,5.9099996 99.9199996,5.99 L107.84,16.16 C107.82,15.9533323 107.805,15.750001 107.795,15.55 C107.785,15.349999 107.78,15.1633342 107.78,14.99 L107.78,5.6 L109.83,5.6 Z M127.35,12.91 L127.35,18.61 C125.916659,19.6433385 124.250009,20.16 122.35,20.16 C121.183327,20.16 120.128338,19.9783351 119.185,19.615 C118.241662,19.2516649 117.43667,18.7450032 116.77,18.095 C116.10333,17.4449968 115.590001,16.6700045 115.23,15.77 C114.869998,14.8699955 114.69,13.8800054 114.69,12.8 C114.69,11.7133279 114.863331,10.7183379 115.21,9.815 C115.556668,8.91166215 116.05333,8.13500325 116.7,7.485 C117.346669,6.83499675 118.126662,6.33166845 119.04,5.975 C119.953337,5.61833155 120.979994,5.44 122.12,5.44 C122.700002,5.44 123.23833,5.48499955 123.735,5.575 C124.231669,5.66500045 124.693331,5.7899992 125.12,5.95 C125.546668,6.1100008 125.939998,6.3033322 126.3,6.53 C126.660001,6.7566678 126.989998,7.0099986 127.29,7.29 L126.62,8.36 C126.513332,8.5266675 126.376667,8.6299998 126.21,8.67 C126.043332,8.7100002 125.863334,8.6700006 125.67,8.55 C125.476665,8.4366661 125.271667,8.3166673 125.055,8.19 C124.838332,8.0633327 124.590001,7.94500055 124.31,7.835 C124.029998,7.72499945 123.706668,7.63500035 123.34,7.565 C122.973331,7.49499965 122.540002,7.46 122.04,7.46 C121.279996,7.46 120.595003,7.58499875 119.985,7.835 C119.374997,8.08500125 118.853335,8.44166435 118.42,8.905 C117.986664,9.36833565 117.653334,9.9299967 117.42,10.59 C117.186665,11.2500033 117.07,11.9866626 117.07,12.8 C117.07,13.6600043 117.193332,14.42833 117.44,15.105 C117.686667,15.7816701 118.036664,16.3549977 118.49,16.825 C118.943335,17.2950023 119.491663,17.6533321 120.135,17.9 C120.778336,18.1466679 121.496662,18.27 122.29,18.27 C122.883336,18.27 123.411664,18.2066673 123.875,18.08 C124.338335,17.9533327 124.793331,17.7766678 125.24,17.55 L125.24,14.69 L123.23,14.69 C123.076665,14.69 122.956667,14.6483337 122.87,14.565 C122.783332,14.4816662 122.74,14.373334 122.74,14.24 L122.74,12.91 L127.35,12.91 Z M140.74,18.04 L140.74,20 L132.42,20 L132.42,5.6 L134.76,5.6 L134.76,18.04 L140.74,18.04 Z" transform="translate(-1 -5)"/>
</svg>
