<svg xmlns="http://www.w3.org/2000/svg" width="29" height="24" viewBox="0 0 29 24">
  <path fill="#010002" d="M29,2.85580723 C27.9326389,3.33681928 26.7873758,3.66303614 25.5840654,3.8086747 C26.8127271,3.06038554 27.7532369,1.87349398 28.1989935,0.463566265 C27.0464804,1.15653012 25.7743186,1.65971084 24.4188056,1.93248193 C23.3333431,0.754795181 21.7893775,0.021253012 20.0768611,0.021253012 C16.7914265,0.021253012 14.127549,2.73050602 14.127549,6.07007229 C14.127549,6.54371084 14.1800997,7.00631325 14.2815997,7.4486747 C9.33804739,7.19614458 4.95445098,4.7873253 2.02057026,1.12703614 C1.50771569,2.01908434 1.21596242,3.05850602 1.21596242,4.16804819 C1.21596242,6.26727711 2.26702288,8.11951807 3.86173856,9.20318072 C2.88677941,9.1700241 1.96982026,8.89725301 1.16706046,8.44385542 L1.16706046,8.51942169 C1.16706046,11.4498313 3.21843137,13.8955181 5.93846078,14.4521446 C5.44010621,14.5885301 4.91459967,14.6640964 4.37094444,14.6640964 C3.98678922,14.6640964 3.61528595,14.6253976 3.25103268,14.5516627 C4.00849183,16.9568193 6.20486275,18.7058313 8.80713889,18.7537831 C6.77206863,20.3756627 4.20604248,21.3395663 1.41896242,21.3395663 C0.938756536,21.3395663 0.465753268,21.3100723 4.73856209e-05,21.2566265 C2.63312418,22.9761928 5.75910621,23.9787952 9.1188415,23.9787952 C20.0624559,23.9787952 26.0444167,14.7599518 26.0444167,6.76491566 L26.0244673,5.98163855 C27.193281,5.13378313 28.2044428,4.06853012 29,2.85580723 Z"/>
</svg>
